<svg width="80" height="80" viewBox="0 0 80 80" fill="none" xmlns="http://www.w3.org/2000/svg">
<rect width="80" height="80" rx="4" fill="white"/>
<path d="M71 57V9H9V57H17.111C18.374 58.235 20.099 59 22 59H27V41H25V40C25 31.729 31.729 25 40 25C48.271 25 55 31.729 55 40V41H53V59H57V61C57 63.757 54.757 66 52 66H45.858C45.411 64.28 43.859 63 42 63H38C35.794 63 34 64.794 34 67C34 69.206 35.794 71 38 71H42C43.859 71 45.411 69.72 45.858 68H52C55.859 68 59 64.86 59 61V58.92C60.502 58.704 61.853 58.014 62.889 57H71ZM42 69H38C36.897 69 36 68.103 36 67C36 65.897 36.897 65 38 65H42C43.103 65 44 65.897 44 67C44 68.103 43.103 69 42 69ZM69 11V17H11V11H69ZM25 57H22C19.243 57 17 54.757 17 52V48C17 45.586 18.721 43.566 21 43.101V55H23V43H25V57ZM40 23C30.626 23 23 30.626 23 40V41H22C18.141 41 15 44.14 15 48V52C15 53.075 15.251 54.089 15.685 55H11V19H69V55H64.315C64.749 54.089 65 53.075 65 52V48C65 44.14 61.859 41 58 41H57V40C57 30.626 49.374 23 40 23ZM58 57H55V43H57V55H59V43.101C61.279 43.566 63 45.585 63 48V52C63 54.757 60.757 57 58 57Z" fill="#46484E"/>
<path d="M15 13H13V15H15V13Z" fill="#46484E"/>
<path d="M19 13H17V15H19V13Z" fill="#46484E"/>
<path d="M23 13H21V15H23V13Z" fill="#46484E"/>
<path d="M52 50C52 43.383 46.617 38 40 38C33.383 38 28 43.383 28 50C28 56.617 33.383 62 40 62C46.617 62 52 56.617 52 50ZM35.801 59.063C36.671 58.379 37.748 58 38.882 58C39.768 58 40.655 57.791 41.447 57.394C41.963 57.136 42.54 57 43.118 57H44.421C45.145 57 45.856 57.225 46.46 57.62C44.716 59.101 42.462 60 40 60C38.499 60 37.08 59.658 35.801 59.063ZM49.979 49.585C49.2 50.485 48.103 51 46.915 51C45.308 51 44 49.692 44 48.084C44 47.195 43.758 46.321 43.3 45.555L41.416 42.416C41.144 41.962 41 41.443 41 40.916C41 40.631 41.06 40.35 41.15 40.072C45.987 40.629 49.775 44.65 49.979 49.585ZM33.438 42.473C33.793 42.79 34.133 43.121 34.433 43.481L35.278 44.494C35.743 45.054 36 45.763 36 46.491V47.882C36 48.953 36.595 49.916 37.553 50.395C37.829 50.532 38 50.81 38 51.118C38 51.604 37.604 52 37.118 52H34.882C34.396 52 34 51.604 34 51.118V50.882C34 49.293 32.707 48 31.118 48C30.821 48 30.528 47.941 30.239 47.85C30.707 45.725 31.853 43.856 33.438 42.473ZM30 50C30 49.954 30.006 49.91 30.007 49.865C30.372 49.949 30.742 50 31.118 50C31.604 50 32 50.396 32 50.882V51.118C32 52.707 33.293 54 34.882 54H37.118C38.707 54 40 52.707 40 51.118C40 50.047 39.405 49.084 38.447 48.605C38.171 48.468 38 48.19 38 47.882V46.491C38 45.297 37.579 44.134 36.814 43.215L35.969 42.2C35.702 41.88 35.414 41.576 35.112 41.285C36.309 40.611 37.656 40.176 39.091 40.046C39.037 40.333 39 40.622 39 40.916C39 41.805 39.242 42.679 39.7 43.445L41.584 46.584C41.856 47.038 42 47.557 42 48.084C42 50.795 44.205 53 46.915 53C47.914 53 48.868 52.756 49.72 52.308C49.382 53.731 48.742 55.035 47.867 56.151C47.865 56.15 47.864 56.148 47.862 56.147C46.877 55.408 45.654 55 44.421 55H43.118C42.231 55 41.344 55.209 40.553 55.605C40.037 55.864 39.459 56 38.882 56C37.054 56 35.335 56.706 34.011 57.989C31.581 56.163 30 53.266 30 50Z" fill="#46484E"/>
<path d="M23 21H13V23H23V21Z" fill="#46484E"/>
<path d="M23 25H13V27H23V25Z" fill="#46484E"/>
<path d="M23 29H21V31H23V29Z" fill="#46484E"/>
<path d="M19 29H13V31H19V29Z" fill="#46484E"/>
<path d="M67 21H57V23H67V21Z" fill="#46484E"/>
<path d="M67 25H57V27H67V25Z" fill="#46484E"/>
<path d="M67 29H65V31H67V29Z" fill="#46484E"/>
<path d="M63 29H57V31H63V29Z" fill="#46484E"/>
</svg>
