<svg width="80" height="80" viewBox="0 0 80 80" fill="none" xmlns="http://www.w3.org/2000/svg">
<rect width="80" height="80" rx="4" fill="white"/>
<path d="M69.493 49.902L67.869 46.829C67.946 46.564 68 46.289 68 46C68 45.229 67.699 44.532 67.22 44C67.7 43.468 68 42.771 68 42C68 41.229 67.699 40.532 67.22 40C67.7 39.468 68 38.771 68 38C68 37.605 67.919 37.23 67.78 36.884C69.055 36.538 70 35.383 70 34C70 32.346 68.654 31 67 31H66.723L69.605 25.958C69.863 25.506 70 24.991 70 24.469V24C70 22.346 68.654 21 67 21C65.494 21 64.68 21.724 64.085 22.252C63.578 22.703 63.243 23 62.497 23C61.752 23 61.417 22.703 60.91 22.252C60.315 21.724 59.501 21 57.995 21C56.49 21 55.676 21.724 55.081 22.252C54.574 22.703 54.24 23 53.495 23C52.752 23 52.418 22.703 51.913 22.253C51.318 21.724 50.505 21 49 21C47.346 21 46 22.346 46 24V24.469C46 24.991 46.137 25.506 46.396 25.957L47.563 28H46.236C45.139 28 44.044 28.19 43 28.529V14C43 11.243 40.757 9 38 9H14C11.243 9 9 11.243 9 14V66C9 68.757 11.243 71 14 71H38C40.757 71 43 68.757 43 66V46.811C43.171 46.897 43.346 46.973 43.511 47.072L44.46 47.642C45.292 48.141 46.197 48.493 47.132 48.718L46.507 49.901C45.521 51.767 45 53.867 45 56C45 63.168 50.832 69 58 69C65.168 69 71 63.168 71 55.976C71 53.867 70.479 51.767 69.493 49.902ZM48 24C48 23.449 48.448 23 49 23C49.743 23 50.078 23.297 50.583 23.747C51.178 24.276 51.991 25 53.495 25C55 25 55.814 24.276 56.409 23.748C56.916 23.297 57.25 23 57.995 23C58.74 23 59.075 23.297 59.582 23.748C60.177 24.276 60.991 25 62.497 25C64.003 25 64.818 24.276 65.413 23.748C65.92 23.297 66.255 23 67 23C67.552 23 68 23.449 68 24V24.469C68 24.643 67.954 24.814 67.868 24.965L64.42 31H51.58L48.132 24.964C48.046 24.814 48 24.643 48 24.469V24ZM14 11H38C39.654 11 41 12.346 41 14V17H11V14C11 12.346 12.346 11 14 11ZM38 69H14C12.346 69 11 67.654 11 66V63H41V66C41 67.654 39.654 69 38 69ZM41 61H11V19H41V29.343C40.358 29.608 39.687 29.796 39 29.898V21H13V59H39V46H39.639C40.098 46 40.552 46.057 41 46.14V61ZM23 28V48H35V46H37V57H15V23H37V30H35V28H23ZM29 34V46H25V30H29V32H31V30H33V46H31V34H29ZM44.54 45.357C43.06 44.469 41.364 44 39.639 44H35V32H37.764C39.381 32 41.001 31.618 42.448 30.895C43.618 30.31 44.928 30 46.237 30H48.706L50.42 33H67C67.552 33 68 33.449 68 34C68 34.551 67.552 35 67 35H65H59H53V37H59H65C65.552 37 66 37.449 66 38C66 38.551 65.552 39 65 39H59H53V41H59H65C65.552 41 66 41.449 66 42C66 42.551 65.552 43 65 43H53V45H65C65.552 45 66 45.449 66 46C66 46.551 65.552 47 65 47H49.361C47.998 47 46.658 46.629 45.489 45.928L44.54 45.357ZM58 67C51.935 67 47 62.065 47 55.976C47 54.192 47.44 52.414 48.274 50.837L49.248 48.993C49.286 48.993 49.323 49.001 49.36 49.001H65C65.56 49.001 66.078 48.837 66.527 48.569L67.726 50.837C68.56 52.414 69 54.191 69 56C69 62.065 64.065 67 58 67Z" fill="#4C5159"/>
<path d="M58 55C58.552 55 59 55.449 59 56H61C61 54.698 60.161 53.598 59 53.184V51H57V53.184C55.839 53.598 55 54.698 55 56C55 57.654 56.346 59 58 59C58.552 59 59 59.449 59 60C59 60.551 58.552 61 58 61C57.448 61 57 60.551 57 60H55C55 61.302 55.839 62.402 57 62.816V65H59V62.816C60.161 62.402 61 61.302 61 60C61 58.346 59.654 57 58 57C57.448 57 57 56.551 57 56C57 55.449 57.448 55 58 55Z" fill="#4C5159"/>
<path d="M30 13H22V15H30V13Z" fill="#4C5159"/>
<path d="M34 13H32V15H34V13Z" fill="#4C5159"/>
<path d="M20 13H18V15H20V13Z" fill="#4C5159"/>
<path d="M29 65H23V67H29V65Z" fill="#4C5159"/>
</svg>
