<svg width="80" height="80" viewBox="0 0 80 80" fill="none" xmlns="http://www.w3.org/2000/svg">
<rect width="80" height="80" rx="4" fill="white"/>
<path d="M33.2964 55.5413C39.9318 55.5413 49.6905 31.4457 49.6905 23.871C49.6905 15.1191 42.3352 8 33.2964 8C24.2561 8 16.9016 15.1191 16.9016 23.871C16.9016 31.078 27.0661 55.5413 33.2964 55.5413ZM20.1653 23.871C20.1653 16.8619 26.0556 11.1596 33.2965 11.1596C40.5365 11.1596 46.426 16.862 46.426 23.871C46.426 27.5106 44.3238 34.3232 41.0689 41.2286C37.6177 48.5496 34.5464 52.3818 33.298 52.3818C32.6893 52.3409 29.7649 49.619 25.7308 41.2105C22.4022 34.2729 20.1653 27.304 20.1653 23.871Z" fill="#4C5159"/>
<path d="M43.3223 24.1342C43.3223 18.7823 38.824 14.4276 33.2966 14.4276C27.7675 14.4276 23.27 18.7823 23.27 24.1342C23.27 29.4868 27.7674 33.8408 33.2966 33.8408C38.8239 33.8408 43.3223 29.4868 43.3223 24.1342ZM26.2318 24.1342C26.2318 20.3625 29.4005 17.2941 33.2966 17.2941C37.1918 17.2941 40.3613 20.3625 40.3613 24.1342C40.3613 27.9051 37.1917 30.9735 33.2966 30.9735C29.4005 30.9735 26.2318 27.9051 26.2318 24.1342Z" fill="#4C5159"/>
<path d="M71.9122 70.0937L59.2811 36.0276C59.1334 35.6292 58.8127 35.3164 58.4028 35.1711L49.3463 31.9565L49.2278 32.3416C48.8236 33.6483 48.3626 35.0053 47.8562 36.3788L47.8237 36.4653L49.1646 46.1522L42.4098 48.2322L42.3352 48.3626C41.7947 49.2969 41.2548 50.1612 40.72 50.9509L40.6908 50.9925C39.9927 52.0211 39.1145 52.9223 38.4359 53.6878L38.1568 53.7939V68.0115L28.0546 64.9132L29.5027 55.1162L29.4053 54.9834C28.7997 54.4232 28.1984 53.7412 27.5709 52.9561L27.0109 52.2411L25.2804 64.7976L11.8189 68.4562L17.8147 52.2922L25.157 49.4492L24.9281 49.0697C24.5661 48.471 24.2122 47.8581 23.8689 47.2396L23.7041 46.9426L19.145 48.7083L21.451 42.4904L21.3852 42.3506C20.9502 41.4186 20.5289 40.4773 20.1344 39.5501L19.7481 38.6449L8.08775 70.0937C7.90024 70.5974 8.01791 71.1544 8.39616 71.5466C8.6737 71.835 9.06659 72 9.47401 72C9.60712 72 9.74024 71.982 9.87012 71.9475L26.5945 67.4017L38.9562 71.1255C38.9651 71.1318 38.9732 71.1373 38.9813 71.1436C39.1907 71.2913 39.4521 71.3762 39.7029 71.3879C39.8969 71.4273 40.1549 71.4202 40.2442 71.3951C40.5478 71.3762 40.8083 71.2914 41.0169 71.1444C41.0259 71.1381 41.0348 71.1318 41.0437 71.1255L53.4054 67.4017L70.1315 71.9475C70.6509 72.0881 71.2369 71.9293 71.6037 71.5459C71.9822 71.1544 72.0997 70.5974 71.9122 70.0937ZM41.4812 68.0115V51.5127L49.5654 49.0202L51.7666 64.9132L41.4812 68.0115ZM50.6547 35.4563L56.7422 37.6172L60.7908 48.5362L52.1531 46.2842L50.6547 35.4563ZM54.7147 64.7976L52.5768 49.3463L62.0028 51.8027L68.1787 68.4561L54.7147 64.7976Z" fill="#4C5159"/>
</svg>
