<svg width="80" height="80" viewBox="0 0 80 80" fill="none" xmlns="http://www.w3.org/2000/svg">
<rect width="80" height="80" rx="4" fill="white"/>
<path d="M35.7 53.2V61.2C35.7 61.3 35.8 61.4 36 61.4L40.0999 59.7L44.2 61.4C44.3 61.5 44.5 61.4 44.5 61.2V53.2" stroke="#46484E" stroke-width="2" stroke-miterlimit="10"/>
<path d="M49.4 53.7L40.5 49.2C40.3 49.1 40.1 49.1 39.9 49.2L31.1 54C30.7 54.2 30.2 53.9 30.2 53.4L31.8 43.5C31.8 43.3 31.8 43.1 31.6 43L24.4 36.1C24 35.8 24.2 35.2 24.7 35.1L34.6 33.5C34.8 33.5 35 33.3 35 33.2L39.3 24.2C39.5 23.8 40.1 23.7 40.4 24.2L44.9 33.1C45 33.3 45.2 33.4 45.4 33.4L55.3 34.7C55.8 34.8 56 35.4 55.6 35.7L48.5 42.8C48.4 42.9 48.3 43.1 48.3 43.3L50.1 53.1C50.3 53.6 49.8 54 49.4 53.7Z" stroke="#46484E" stroke-width="2" stroke-miterlimit="10"/>
<path d="M55.2 24.8C59.1 28.7 61.5 34.1 61.5 40C61.5 45.9 59.1 51.3 55.2 55.2" stroke="#46484E" stroke-width="2" stroke-miterlimit="10"/>
<path d="M24.8 24.8C28.7 20.9 34.1 18.5 40 18.5C45.9 18.5 51.3001 20.9 55.2001 24.8" stroke="#46484E" stroke-width="2" stroke-miterlimit="10" stroke-dasharray="2 2"/>
<path d="M24.8 55.3C20.9 51.4 18.5 46 18.5 40.1C18.5 34.2 20.9 28.8 24.8 24.9" stroke="#46484E" stroke-width="2" stroke-miterlimit="10"/>
</svg>
