<svg width="13" height="19" viewBox="0 0 13 19" fill="none" xmlns="http://www.w3.org/2000/svg">
<path d="M7.93395 13.2061C9.27487 13.6182 10.294 14.5357 10.294 15.626C10.294 17.0886 8.49714 18.2852 6.27121 18.2852C4.04528 18.2852 2.24844 17.0886 2.24844 15.626C2.24844 14.549 3.21391 13.6182 4.60847 13.2061" stroke="white" stroke-linecap="round" stroke-linejoin="round"/>
<path d="M11.5409 6.22542C11.5608 7.10554 11.3383 7.97438 10.8972 8.73841C9.81107 10.5068 6.27104 15.6259 6.27104 15.6259C6.27104 15.6259 2.73102 10.5068 1.64487 8.73841C1.20383 7.97438 0.981294 7.10554 1.00123 6.22542C1.00123 4.83955 1.55644 3.51045 2.54472 2.53049C3.533 1.55053 4.8734 1 6.27104 1C7.66868 1 9.00908 1.55053 9.99736 2.53049C10.9856 3.51045 11.5409 4.83955 11.5409 6.22542V6.22542Z" stroke="white" stroke-linecap="round" stroke-linejoin="round"/>
<path d="M6.27103 8.31308C7.38188 8.31308 8.28241 7.42015 8.28241 6.31865C8.28241 5.21716 7.38188 4.32422 6.27103 4.32422C5.16017 4.32422 4.25964 5.21716 4.25964 6.31865C4.25964 7.42015 5.16017 8.31308 6.27103 8.31308Z" stroke="white" stroke-linecap="round" stroke-linejoin="round"/>
</svg>
