<svg width="13" height="19" viewBox="0 0 13 19" fill="none" xmlns="http://www.w3.org/2000/svg">
<path d="M8.18964 13.2059C9.58002 13.6181 10.6367 14.5356 10.6367 15.6258C10.6367 17.0884 8.7736 18.2851 6.46557 18.2851C4.15754 18.2851 2.29443 17.0884 2.29443 15.6258C2.29443 14.5489 3.29551 13.6181 4.7415 13.2059" stroke="black" stroke-linecap="round" stroke-linejoin="round"/>
<path d="M11.9296 6.22542C11.9503 7.10554 11.7196 7.97438 11.2623 8.73841C10.136 10.5068 6.46545 15.6259 6.46545 15.6259C6.46545 15.6259 2.79486 10.5068 1.66866 8.73841C1.21135 7.97438 0.980604 7.10554 1.00128 6.22542C1.00128 4.83955 1.57697 3.51045 2.6017 2.53049C3.62643 1.55053 5.01626 1 6.46545 1C7.91464 1 9.30448 1.55053 10.3292 2.53049C11.3539 3.51045 11.9296 4.83955 11.9296 6.22542V6.22542Z" stroke="black" stroke-linecap="round" stroke-linejoin="round"/>
<path d="M6.46545 8.3129C7.61728 8.3129 8.55102 7.41996 8.55102 6.31847C8.55102 5.21697 7.61728 4.32404 6.46545 4.32404C5.31362 4.32404 4.37988 5.21697 4.37988 6.31847C4.37988 7.41996 5.31362 8.3129 6.46545 8.3129Z" stroke="black" stroke-linecap="round" stroke-linejoin="round"/>
</svg>
